<svg width="16" height="16" viewBox="0 0 16 16" fill="none" xmlns="http://www.w3.org/2000/svg">
<path d="M15.278 0.802734H1.22244C0.884418 0.802734 0.611328 1.07341 0.611328 1.40844V15.3397C0.611328 15.6747 0.884418 15.9454 1.22244 15.9454H15.278C15.616 15.9454 15.8891 15.6747 15.8891 15.3397V1.40844C15.8891 1.07341 15.616 0.802734 15.278 0.802734ZM13.5134 5.22249H12.2931C11.3363 5.22249 11.1511 5.67299 11.1511 6.33548V7.79485H13.4351L13.1372 10.0795H11.1511V15.9454H8.76966V10.0814H6.77782V7.79485H8.76966V6.11023C8.76966 4.15494 9.9747 3.08927 11.7355 3.08927C12.5796 3.08927 13.3033 3.15174 13.5153 3.18013V5.22249H13.5134Z" fill="#AAAAAA"/>
</svg>
