<svg width="16" height="16" viewBox="0 0 16 16" fill="none" xmlns="http://www.w3.org/2000/svg">
<path d="M14.944 0.802734H0.888455C0.550434 0.802734 0.277344 1.07341 0.277344 1.40844V15.3397C0.277344 15.6747 0.550434 15.9454 0.888455 15.9454H14.944C15.282 15.9454 15.5551 15.6747 15.5551 15.3397V1.40844C15.5551 1.07341 15.282 0.802734 14.944 0.802734ZM12.0279 6.28626C12.0336 6.37523 12.0336 6.46798 12.0336 6.55883C12.0336 9.33751 9.89852 12.5383 5.99696 12.5383C4.79384 12.5383 3.67856 12.1919 2.73898 11.5957C2.91085 11.6146 3.07509 11.6222 3.25078 11.6222C4.24384 11.6222 5.15668 11.289 5.88429 10.725C4.95234 10.706 4.16936 10.1003 3.902 9.26747C4.22856 9.31479 4.52266 9.31479 4.85877 9.22962C4.3789 9.13299 3.94759 8.87468 3.6381 8.49857C3.32862 8.12247 3.16004 7.65177 3.16102 7.16643V7.13993C3.44175 7.29704 3.77214 7.39357 4.11779 7.40682C3.82722 7.21488 3.58891 6.95483 3.42401 6.64974C3.25912 6.34466 3.17272 6.00395 3.17248 5.65785C3.17248 5.26603 3.27561 4.90828 3.46085 4.59786C3.99348 5.24774 4.65811 5.77925 5.41156 6.15787C6.16501 6.53648 6.99041 6.75371 7.83411 6.79544C7.53429 5.36635 8.61137 4.20983 9.90616 4.20983C10.5173 4.20983 11.0673 4.46347 11.4549 4.87232C11.9343 4.78336 12.3926 4.60543 12.8013 4.36693C12.6428 4.85339 12.3105 5.26414 11.8694 5.52345C12.2971 5.47803 12.7096 5.36067 13.0916 5.19599C12.8032 5.6162 12.4423 5.98909 12.0279 6.28626Z" fill="#AAAAAA"/>
</svg>
