<svg width="16" height="12" viewBox="0 0 16 12" fill="none" xmlns="http://www.w3.org/2000/svg">
<path d="M15.5702 1.84781C15.4833 1.50427 15.3128 1.19099 15.0758 0.939313C14.8388 0.687636 14.5436 0.50639 14.2198 0.413717C13.0279 0.0737305 8.25022 0.0737305 8.25022 0.0737305C8.25022 0.0737305 3.4725 0.0737304 2.28063 0.411908C1.95669 0.504281 1.66138 0.685426 1.42433 0.93715C1.18729 1.18887 1.01687 1.50232 0.930183 1.846C0.611328 3.1119 0.611328 5.75222 0.611328 5.75222C0.611328 5.75222 0.611328 8.39254 0.930183 9.65664C1.10581 10.3547 1.62416 10.9045 2.28063 11.0907C3.4725 11.4307 8.25022 11.4307 8.25022 11.4307C8.25022 11.4307 13.0279 11.4307 14.2198 11.0907C14.878 10.9045 15.3946 10.3547 15.5702 9.65664C15.8891 8.39254 15.8891 5.75222 15.8891 5.75222C15.8891 5.75222 15.8891 3.11191 15.5702 1.84781ZM6.73267 8.17553V3.32892L10.6885 5.73414L6.73267 8.17553Z" fill="#AAAAAA"/>
</svg>
