<svg width="23" height="21" viewBox="0 0 23 21" fill="none" xmlns="http://www.w3.org/2000/svg">
<g id="&#229;&#156;&#134;&#232;&#167;&#146;-&#232;&#180;&#173;&#231;&#137;&#169;&#232;&#189;&#166;1-&#233;&#157;&#162;">
<g id="&#229;&#156;&#134;&#232;&#167;&#146;-&#231;&#188;&#150;&#232;&#190;&#145;&#232;&#181;&#132;&#230;&#150;&#153;-&#233;&#157;&#162;">
<g id="Group 2">
<path id="Combined Shape" fill-rule="evenodd" clip-rule="evenodd" d="M0.667969 1.32874C0.667969 1.69694 0.966446 1.99541 1.33463 1.99541H3.19184C3.53328 1.99541 3.81953 2.25339 3.85492 2.59299L5.13526 14.8806C5.24142 15.8994 6.10017 16.6733 7.12449 16.6733H19.9609C20.329 16.6733 20.6275 16.3748 20.6275 16.0066C20.6275 15.6385 20.329 15.34 19.9609 15.34H7.12449C6.78305 15.34 6.4968 15.082 6.46142 14.7424L6.37743 13.9364L19.2517 12.7299C19.6594 12.6917 20.0025 12.4089 20.1179 12.0161L22.2915 4.61513C22.4796 3.97473 21.9995 3.33334 21.332 3.33334H5.27261L5.18107 2.4548C5.07491 1.436 4.21616 0.662079 3.19184 0.662079H1.33463C0.966446 0.662079 0.667969 0.960556 0.667969 1.32874Z" fill="white"/>
<path id="Oval" fill-rule="evenodd" clip-rule="evenodd" d="M8.0013 20.6667C8.73768 20.6667 9.33464 20.0697 9.33464 19.3333C9.33464 18.597 8.73768 18 8.0013 18C7.26492 18 6.66797 18.597 6.66797 19.3333C6.66797 20.0697 7.26492 20.6667 8.0013 20.6667Z" fill="white"/>
<path id="Oval Copy" fill-rule="evenodd" clip-rule="evenodd" d="M17.3333 20.6667C18.0697 20.6667 18.6667 20.0697 18.6667 19.3333C18.6667 18.597 18.0697 18 17.3333 18C16.597 18 16 18.597 16 19.3333C16 20.0697 16.597 20.6667 17.3333 20.6667Z" fill="white"/>
</g>
</g>
</g>
</svg>
